<svg width="36" height="36" viewBox="0 0 36 36" fill="none" xmlns="http://www.w3.org/2000/svg">
<g clip-path="url(#clip0_0_163)">
<path d="M18.5326 10.3985L25.2996 2.36847H11.7657L18.5326 10.3985ZM25.2996 18.4286L31.277 11.4136L27.5552 3.36096L19.9988 12.2256L25.2996 18.4286ZM24.2845 33.2482L30.9161 28.7369L9.51009 3.36096L5.81085 11.4136L24.2845 33.2482ZM12.6454 33.2482L16.9086 28.2407L11.7657 22.0602L6.01384 28.8271L12.6454 33.2482ZM24.059 36.0001C23.8866 35.998 23.7167 35.9585 23.5609 35.8845C23.4052 35.8105 23.2673 35.7038 23.1567 35.5715L18.5326 30.0902L13.8409 35.594C13.7303 35.7263 13.5924 35.8331 13.4367 35.9071C13.281 35.981 13.1111 36.0204 12.9387 36.0226C12.7044 36.0275 12.4749 35.9563 12.2845 35.8196L3.53265 30.0452C3.39197 29.9508 3.27298 29.8276 3.18354 29.6837C3.0941 29.5398 3.03626 29.3786 3.01386 29.2106C2.98786 29.0461 2.99865 28.8777 3.04545 28.7178C3.09226 28.5579 3.1739 28.4103 3.28452 28.2857L10.0514 20.2331L3.28452 12.3609C3.14059 12.1877 3.04752 11.9779 3.01567 11.7549C2.98381 11.5319 3.01442 11.3044 3.10409 11.0978L7.93115 0.654163C7.92686 0.601619 7.92686 0.548796 7.93115 0.496252L8.06648 0.360919L8.29205 0.225586H8.44994H27.7131H27.9161L28.1642 0.360919L28.2996 0.496252C28.3039 0.548796 28.3039 0.601619 28.2996 0.654163L33.1041 11.0528C33.1937 11.2594 33.2244 11.4867 33.1925 11.7097C33.1606 11.9327 33.0676 12.1426 32.9236 12.3159L26.1567 20.1881L32.9236 28.0602C33.0304 28.1872 33.1097 28.335 33.1563 28.4942C33.2029 28.6534 33.2158 28.8205 33.1943 28.985C33.172 29.1503 33.1165 29.3095 33.0312 29.4529C32.946 29.5963 32.8326 29.721 32.6981 29.8196L24.0815 35.7519C23.8888 35.903 23.6497 35.9828 23.4048 35.9775" fill="#00998C"/>
</g>
<defs>
<clipPath id="clip0_0_163">
<rect width="36" height="36" fill="white"/>
</clipPath>
</defs>
</svg>
