<svg width="36" height="36" viewBox="0 0 36 36" fill="none" xmlns="http://www.w3.org/2000/svg">
<path fill-rule="evenodd" clip-rule="evenodd" d="M7.94434 22.7533H6.00115V7.25013C5.96756 5.3917 6.67235 3.59577 7.96098 2.25623C9.2496 0.91669 11.0169 0.142912 12.8752 0.104492C13.1874 0.115402 13.4828 0.248525 13.6978 0.475209C13.9128 0.701893 14.03 1.00389 14.0244 1.31624L14.0244 35.6447H7.94434V22.7533ZM8.25768 20.4131H11.7887V2.4655C10.7486 2.75104 9.83475 3.37814 9.19426 4.24601C8.55377 5.11389 8.22389 6.17204 8.25768 7.25013V20.4131ZM10.18 22.7533V33.3045H11.7888V22.7533H10.18Z" fill="#00998C"/>
<path d="M23.3223 0.250488H25.5579V11.7212H23.3223V0.250488Z" fill="#00998C"/>
<path fill-rule="evenodd" clip-rule="evenodd" d="M19.498 16.1879C19.1115 16.1308 18.7333 16.0227 18.3737 15.8657C17.8404 15.633 17.3582 15.2975 16.9547 14.8784C16.5511 14.4593 16.234 13.9649 16.0216 13.4232C15.8092 12.8816 15.7055 12.3034 15.7166 11.7216V0.250977H17.9732V11.7216C17.9732 12.2758 18.1933 12.8072 18.5851 13.199C18.977 13.5909 19.5084 13.811 20.0625 13.811H25.0979C25.6521 13.811 26.1835 13.5909 26.5753 13.199C26.9672 12.8072 27.1873 12.2758 27.1873 11.7216V0.250977H29.4229V11.7216C29.4368 12.3024 29.3358 12.88 29.1257 13.4216C28.9155 13.9631 28.6005 14.4578 28.1986 14.8771C27.7967 15.2965 27.3158 15.6324 26.7837 15.8653C26.399 16.0338 25.993 16.146 25.5781 16.1994V35.9793H19.498V16.1879ZM21.7337 16.2346V33.6392H23.3425V16.2346H21.7337Z" fill="#00998C"/>
<path d="M21.7132 0.250488H19.4775V11.7212H21.7132V0.250488Z" fill="#00998C"/>
</svg>
