<svg width="36" height="36" viewBox="0 0 36 36" fill="none" xmlns="http://www.w3.org/2000/svg">
<g clip-path="url(#clip0_0_175)">
<path d="M3.33762 32.5236H32.7254V3.56023H3.33762V32.5236ZM36 36H0V0H36V36Z" fill="#00998C"/>
<path d="M11.3343 28.8783H8C8 25.5116 11.502 23.0778 13.9975 22.4288C16.6449 21.7413 19.4495 21.8833 22.0082 22.8345C23.7697 23.4632 27.062 25.5522 26.9991 28.9189H23.6858C23.6858 27.9454 22.2389 26.6879 20.9177 26.2012C18.9684 25.4799 16.8347 25.3665 14.8154 25.8767C13.4313 26.2418 11.3343 27.6817 11.3343 29" fill="#00998C"/>
<path d="M18 16.5685C18.6993 16.5317 19.3552 16.2435 19.8274 15.7653C20.2996 15.2872 20.5505 14.6571 20.5264 14.0101C20.544 13.3344 20.2761 12.6789 19.7795 12.1828C19.5548 11.9525 19.2803 11.7685 18.9738 11.6425C18.6672 11.5166 18.3355 11.4515 18 11.4517C17.3045 11.4833 16.6508 11.768 16.1816 12.2435C15.7124 12.719 15.4658 13.3468 15.4956 13.9898C15.478 14.6655 15.7459 15.3211 16.2425 15.8172C16.4585 16.0481 16.7247 16.2343 17.0237 16.3638C17.3227 16.4932 17.6479 16.563 17.978 16.5685M17.978 20C17.1859 19.9938 16.4037 19.8354 15.6814 19.5348C14.959 19.2341 14.3122 18.7979 13.7821 18.2538C12.6267 17.0836 11.9913 15.5538 12.0026 13.9696C11.9548 12.4462 12.5569 10.9666 13.6788 9.84978C14.8008 8.733 16.3528 8.06863 18 8C18.8041 8.0053 19.5982 8.16509 20.3318 8.4692C21.0655 8.77331 21.7228 9.21507 22.2619 9.7665C23.4206 10.9319 24.0431 12.4685 23.9974 14.0507C24.045 15.5721 23.4423 17.0496 22.3198 18.1631C21.1972 19.2766 19.6453 19.9366 18 20" fill="#00998C"/>
</g>
<defs>
<clipPath id="clip0_0_175">
<rect width="35.812" height="36" fill="white"/>
</clipPath>
</defs>
</svg>
