<svg xmlns="http://www.w3.org/2000/svg" width="36" height="36" viewBox="0 0 36 36" fill="none">
  <path d="M27.5615 16.8747C27.5921 16.5793 27.6086 16.2822 27.6109 15.9845C27.6187 14.1999 27.1703 12.444 26.3098 10.8895C25.4494 9.33493 24.2065 8.03525 22.7035 7.1184C18.6108 4.85471 12.9627 6.47702 9.85152 10.8912L7.22188 9.02368C9.02215 6.29885 11.7272 4.3273 14.8401 3.47131C17.953 2.61533 21.2646 2.93246 24.1664 4.36432C26.1823 5.55867 27.8522 7.27484 29.0068 9.33881C30.1614 11.4028 30.7595 13.7411 30.7405 16.1166C30.734 16.4656 30.7137 16.814 30.6796 17.1607L33.7407 14.0038L36 16.2864L29.2592 23.2284L22.5184 16.2864L24.7777 14.0038L27.5615 16.8747Z" fill="#00998C"/>
  <path d="M17.3888 33C15.4482 33.0041 13.5378 32.511 11.8332 31.5663C9.82371 30.3757 8.15894 28.665 7.00766 26.6077C5.85639 24.5504 5.25954 22.2197 5.27762 19.8517C5.28448 19.4579 5.30935 19.0651 5.35202 18.6746L2.20372 21.9079L0 19.6819L6.72226 12.7588L13.426 19.6819L11.2223 21.9079L8.43516 19.0337C8.40604 19.3177 8.39052 19.6033 8.38875 19.8894C8.38375 21.6808 8.83499 23.4429 9.69838 25.0035C10.5618 26.5641 11.8078 27.8698 13.3147 28.7932C15.5629 29.8373 18.1028 30.0311 20.4786 29.3397C22.8544 28.6482 24.9104 27.1168 26.2778 25.0204L28.7963 26.9068C27.5098 28.7475 25.8179 30.2556 23.8562 31.3105C21.8946 32.3653 19.7177 32.9375 17.4999 32.9811L17.3888 33Z" fill="#00998C"/>
</svg>